HIERARCHY
ROOT Hips
{
	OFFSET -3.958830 18.904000 13.208200
	CHANNELS 6 Xposition Yposition Zposition Zrotation Yrotation Xrotation 
	JOINT LHipJoint
	{
		OFFSET 0.000000 0.000000 0.000000
		CHANNELS 3 Zrotation Yrotation Xrotation
		JOINT LeftUpLeg
		{
			OFFSET 1.800000 -1.400000 0.085000
			CHANNELS 3 Zrotation Yrotation Xrotation
			JOINT LeftLeg
			{
				OFFSET 2.215000 -6.000000 0.000000
				CHANNELS 3 Zrotation Yrotation Xrotation
				JOINT LeftFoot
				{
					OFFSET 2.500000 -6.900000 0.000000
					CHANNELS 3 Zrotation Yrotation Xrotation
					JOINT LeftToeBase
					{
						OFFSET 0.200000 -0.500000 1.950000
						CHANNELS 3 Zrotation Yrotation Xrotation
						End Site
						{
							OFFSET 0.000000 0.000000 0.000000
						}
					}
				}
			}
		}
	}
	JOINT RHipJoint
	{
		OFFSET 0.000000 0.000000 0.000000
		CHANNELS 3 Zrotation Yrotation Xrotation
		JOINT RightUpLeg
		{
			OFFSET -1.800000 -1.400000 0.085000
			CHANNELS 3 Zrotation Yrotation Xrotation
			JOINT RightLeg
			{
				OFFSET -2.215000 -6.000000 0.000000
				CHANNELS 3 Zrotation Yrotation Xrotation
				JOINT RightFoot
				{
					OFFSET -2.500000 -6.900000 0.000000
					CHANNELS 3 Zrotation Yrotation Xrotation
					JOINT RightToeBase
					{
						OFFSET -0.200000 -0.500000 1.950000
						CHANNELS 3 Zrotation Yrotation Xrotation
						End Site
						{
							OFFSET 0.000000 0.000000 0.000000
						}
					}
				}
			}
		}
	}
	JOINT LowerBack
	{
		OFFSET 0.000000 0.000000 0.000000
		CHANNELS 3 Zrotation Yrotation Xrotation
		JOINT Spine
		{
			OFFSET -0.087000 1.940000 -0.288900
			CHANNELS 3 Zrotation Yrotation Xrotation
			JOINT Spine1
			{
				OFFSET 0.000000 1.950000 0.060000
				CHANNELS 3 Zrotation Yrotation Xrotation
				JOINT Neck
				{
					OFFSET 0.000000 0.000000 0.000000
					CHANNELS 3 Zrotation Yrotation Xrotation
					JOINT Neck1
					{
						OFFSET 0.000000 1.600000 0.340000
						CHANNELS 3 Zrotation Yrotation Xrotation
						JOINT Head
						{
							OFFSET 0.000000 1.667000 -0.240000
							CHANNELS 3 Zrotation Yrotation Xrotation
							End Site
							{
								OFFSET 0.000000 0.000000 0.000000
							}
						}
					}
				}
				JOINT LeftShoulder
				{
					OFFSET 0.000000 0.000000 0.000000
					CHANNELS 3 Zrotation Yrotation Xrotation
					JOINT LeftArm
					{
						OFFSET 2.700000 1.550000 -0.730000
						CHANNELS 3 Zrotation Yrotation Xrotation
						JOINT LeftForeArm
						{
							OFFSET 5.450000 0.000000 0.000000
							CHANNELS 3 Zrotation Yrotation Xrotation
							JOINT LeftHand
							{
								OFFSET 3.450000 0.000000 0.000000
								CHANNELS 3 Zrotation Yrotation Xrotation
								JOINT LeftHandIndex1
								{
									OFFSET 0.750000 0.000000 0.000000
									CHANNELS 3 Zrotation Yrotation Xrotation
									End Site
									{
										OFFSET 0.000000 0.000000 0.000000
									}
								}
							}
						}
					}
				}
				JOINT RightShoulder
				{
					OFFSET 0.000000 0.000000 0.000000
					CHANNELS 3 Zrotation Yrotation Xrotation
					JOINT RightArm
					{
						OFFSET -2.700000 1.550000 -0.730000
						CHANNELS 3 Zrotation Yrotation Xrotation
						JOINT RightForeArm
						{
							OFFSET -5.450000 0.000000 0.000000
							CHANNELS 3 Zrotation Yrotation Xrotation
							JOINT RightHand
							{
								OFFSET -3.450000 0.000000 0.000000
								CHANNELS 3 Zrotation Yrotation Xrotation
								JOINT RightHandIndex1
								{
									OFFSET -0.750000 0.000000 0.000000
									CHANNELS 3 Zrotation Yrotation Xrotation
									End Site
									{
										OFFSET 0.000000 0.000000 0.000000
									}
								}
							}
						}
					}
				}
			}
		}
	}
}
MOTION
Frames: 9
Frame Time: 0.016667
0.814140 16.419320 -1.849110 -16.434218 15.793064 11.833918 -15.513050 12.084921 2.838160 15.136502 -3.828105 -25.455680 -5.731843 4.432287 9.174615 -1.833154 4.616504 3.168127 0.925410 0.246030 0.625210 18.272147 -8.800962 4.188961 -14.703827 7.617213 -44.841285 13.350175 -4.911772 14.853736 0.043435 -3.240940 3.347013 0.752690 0.736730 0.396020 -3.096471 -2.109907 -7.368482 3.622932 0.921585 6.589162 9.856072 -0.803494 9.710314 0.988951 6.656496 -5.135191 10.958114 -5.959885 18.209413 -6.112270 -3.469290 -10.837570 -22.309887 -2.588776 1.688674 -15.726735 10.952494 -1.743421 -70.117402 -22.969914 9.383852 -4.255965 3.397975 0.650410 0.698980 -0.495240 0.426900 21.831602 -1.635021 1.012856 24.080941 -2.983362 -7.574738 -139.157932 58.044876 -128.475873 0.973964 -2.199728 -0.694390 0.629210 0.065650 -0.583060 
0.720630 16.304690 -1.818340 -15.061739 15.325483 13.846484 -15.571097 12.124747 2.806191 13.319041 -4.331375 -24.835226 -5.501629 3.867125 7.194223 -1.883900 4.482051 3.282749 0.969910 0.366170 0.618820 18.231255 -8.730490 3.949745 -12.694601 6.491844 -43.372106 7.148550 -2.043230 3.833057 0.236960 -2.340711 3.715035 0.892650 0.849270 0.419000 -2.924071 -2.364504 -7.095938 0.899590 0.630238 3.092659 11.428980 -1.693029 8.910956 0.925332 7.780309 -4.152067 12.866191 -5.851196 16.677034 -7.837870 -2.505810 -7.710200 -23.159427 -1.361954 0.745403 -15.763958 8.636506 -0.374872 -68.667338 -15.709646 4.775025 -4.431577 3.460849 0.450790 0.881260 -0.603180 0.464340 23.253028 -3.716530 -0.095165 27.705165 -1.217200 -6.185339 -138.035006 52.243699 -120.598286 0.851440 -2.346456 -0.693380 0.636480 0.034550 -0.552730 
0.627890 16.204040 -1.786740 -13.747875 14.392922 14.939707 -15.603532 12.114741 2.661655 11.982442 -4.545251 -23.935844 -5.424491 3.719960 6.887274 -1.893208 4.505220 3.334609 1.011790 0.458110 0.582680 18.233733 -8.486675 4.002985 -12.888280 5.985090 -42.269264 4.420220 -0.784106 -4.428054 0.259917 -2.512945 3.678584 1.002810 0.972470 0.456640 -2.857696 -2.650978 -6.995228 -0.935457 0.565587 0.726133 12.916995 -1.960133 7.929902 0.071851 7.816529 -2.918407 12.807342 -5.807658 15.874895 -8.397840 -2.742280 -4.990240 -23.701340 -0.285623 -0.483060 -14.705725 4.671829 1.526099 -69.979870 -7.783394 0.399655 -4.557348 3.587953 0.268260 1.029420 -0.712060 0.520150 25.718232 -4.598895 -1.280877 30.704210 1.116770 -5.269006 -137.431568 45.708716 -111.492474 0.723818 -2.532912 -0.679470 0.631460 0.012410 -0.497440 
0.520680 16.142070 -1.764140 -13.059827 12.543485 14.668989 -15.628102 12.256907 2.584216 12.090845 -4.370710 -22.895885 -5.582838 4.013664 7.848277 -1.818371 4.657661 3.307529 0.917750 0.325170 0.518790 18.199264 -8.457149 4.018336 -12.812230 5.968141 -42.125600 4.096302 -0.754082 -4.885981 0.298495 -2.526963 3.695960 0.913110 1.023580 0.467760 -2.785034 -2.874811 -6.967096 -1.780519 0.293024 0.635837 13.735641 -2.109992 7.030078 -0.806671 7.075458 -2.528426 11.334276 -4.727878 16.491147 -8.060250 -2.137860 -3.431600 -23.441696 0.382719 -0.809824 -16.145473 3.189342 1.865188 -67.491654 -1.263014 -3.822602 -4.590886 3.584126 0.245470 1.053460 -0.759650 0.511600 27.270234 -4.371268 -1.782298 33.506459 3.037782 -5.167207 -137.798654 44.047864 -109.832122 0.729071 -2.543202 -0.691660 0.598190 0.051150 -0.485860 
0.416410 16.120040 -1.749840 -12.218759 10.977819 13.834775 -15.662314 12.496927 2.586085 12.279061 -4.163772 -22.937273 -5.620812 4.622085 10.378511 -1.702350 4.826999 3.243069 0.716860 0.098320 0.396100 18.133001 -8.578099 3.954133 -12.996232 5.790084 -42.572983 4.930862 -1.391249 -0.686507 0.380936 -2.423329 3.764433 0.734110 1.060310 0.465310 -2.660473 -3.091559 -6.936377 -2.717216 0.074317 1.562399 14.431526 -2.100230 6.235896 -1.353273 6.450590 -2.482405 10.015050 -3.666207 17.890931 -8.219090 -1.055710 -1.927740 -23.014332 1.027571 -0.775287 -18.545738 2.807924 1.683299 -64.373529 -0.991766 -3.610474 -4.648366 3.507136 0.244520 1.064320 -0.785930 0.451410 27.998242 -4.180242 -1.999979 35.703771 4.561560 -4.923422 -139.343232 43.991645 -112.075947 0.785438 -2.461105 -0.702130 0.560900 0.144490 -0.475140 
0.308710 16.126840 -1.741970 -10.895687 11.273628 12.628588 -15.745612 12.739250 2.818467 13.072817 -4.368406 -25.813693 -6.312308 6.179579 16.726344 -1.639782 5.463645 2.960745 0.579360 -0.125140 0.402340 18.024302 -8.689982 3.742739 -13.732728 5.235041 -42.385683 5.910123 -2.602004 6.530317 0.397530 -2.485693 3.724180 0.584170 1.035720 0.445520 -2.394631 -3.547614 -6.951693 -4.409405 -0.451558 3.007505 15.081092 -2.430539 5.681605 -1.409025 6.408284 -2.691552 9.593586 -3.091314 19.390815 -8.678240 -0.087160 -1.808170 -22.529296 1.317161 -0.854279 -20.416650 1.972808 1.557588 -62.210150 -4.259447 -1.276444 -4.660307 3.383421 0.356110 1.013940 -0.766960 0.372430 27.766978 -4.473758 -1.662329 37.252965 4.005359 -5.390733 -141.527130 47.342338 -120.398245 0.863054 -2.349069 -0.765870 0.561840 0.215930 -0.534700 
0.186630 16.158740 -1.743850 -9.982068 11.213045 11.116052 -15.877639 12.610329 3.421986 15.781823 -4.790808 -30.749570 -8.698309 9.323025 25.688105 -1.450311 7.041170 2.277097 0.552600 -0.197290 0.453760 17.937879 -8.571498 3.468877 -14.360627 5.093818 -41.341598 8.236248 -4.235368 13.790093 0.308666 -2.926540 3.546075 0.514400 0.941100 0.393950 -2.074184 -3.934744 -7.181388 -6.195992 -0.330371 5.190155 15.900846 -2.259278 5.670808 -1.323966 6.435033 -2.881528 9.296446 -2.756337 21.244414 -8.344700 0.246930 -3.639130 -22.090148 1.599783 -0.779598 -22.228342 2.023484 0.879324 -61.937067 -11.997642 3.419332 -4.572983 3.278129 0.508300 0.896200 -0.691970 0.324160 27.248527 -4.534477 -1.359653 37.220080 3.498800 -6.200616 -144.660735 51.866608 -131.040315 0.917631 -2.269860 -0.804550 0.587860 0.229440 -0.591590 
0.062100 16.207880 -1.770240 -9.780219 9.497266 8.458558 -16.034502 12.252668 4.255505 20.187451 -4.589307 -34.881091 -12.561934 13.681600 33.587783 -1.040082 9.143568 1.431372 0.556850 -0.206940 0.491620 17.863590 -8.368780 3.130641 -13.538974 5.542505 -39.187174 9.961450 -6.076164 20.959284 0.142227 -3.608587 3.299980 0.438720 0.808900 0.356590 -1.735730 -4.156038 -7.650215 -7.094438 0.885308 9.132482 15.947403 -0.962138 6.292857 -0.832118 6.052651 -3.583110 8.404768 -2.334748 23.678660 -7.408160 0.457910 -6.176210 -22.597497 0.381275 -0.390723 -21.962634 2.567029 -0.236607 -65.524443 -22.607222 10.399087 -4.418213 3.247591 0.646830 0.744010 -0.574950 0.296260 26.554708 -2.757477 0.136238 33.854663 0.242304 -8.671902 -153.528634 57.517930 -151.590754 0.958643 -2.270796 -0.776530 0.578300 0.210690 -0.613540 
-0.051350 16.239230 -1.800010 -9.467647 7.981675 5.913483 -16.166087 11.790237 5.137058 24.338358 -4.194364 -38.948100 -16.294768 18.048749 39.889751 -0.574321 11.027799 0.752747 0.581410 -0.191200 0.519030 17.834034 -8.202027 2.727333 -12.620382 5.695823 -35.976790 10.939031 -7.970479 27.086909 -0.064625 -4.471233 2.998944 0.382410 0.701060 0.341330 -1.511076 -4.208215 -8.123337 -7.114830 2.009158 12.971213 15.099637 0.520400 6.882813 -0.272744 5.406791 -4.247488 7.177126 -2.084960 25.763790 -6.496560 0.578710 -7.990250 -22.675811 -0.738368 0.030898 -22.379456 2.718017 -1.353100 -67.488385 -34.436704 18.602430 -4.288297 3.264538 0.740090 0.622010 -0.480410 0.294020 25.149568 -0.870118 1.355295 30.132569 -3.240480 -11.193517 -166.833258 64.036836 -175.532886 0.946574 -2.217809 -0.730230 0.546510 0.176860 -0.617940 
